<?xml version="1.0" encoding="UTF-8" standalone="no"?>
<!DOCTYPE svg PUBLIC "-//W3C//DTD SVG 1.1//EN"
 "http://www.w3.org/Graphics/SVG/1.1/DTD/svg11.dtd">
<!-- Generated by graphviz version 2.43.0 (0)
 -->
<!-- Title: G Pages: 1 -->
<svg width="1418pt" height="528pt"
 viewBox="0.00 0.00 1418.45 528.16" xmlns="http://www.w3.org/2000/svg" xmlns:xlink="http://www.w3.org/1999/xlink">
<g id="graph0" class="graph" transform="scale(1 1) rotate(0) translate(4 524.16)">
<title>G</title><style>.edge>path:hover{stroke-width:8}</style>
<polygon fill="white" stroke="transparent" points="-4,4 -4,-524.16 1414.45,-524.16 1414.45,4 -4,4"/>
<!-- flask_file_share -->
<g id="node1" class="node">
<title>flask_file_share</title><style>.edge>path:hover{stroke-width:8}</style>
<ellipse fill="#06f906" stroke="black" cx="1172.93" cy="-348.17" rx="54.31" ry="18"/>
<text text-anchor="middle" x="1172.93" y="-345.67" font-family="Helvetica,sans-Serif" font-size="10.00" fill="#000000">flask_file_share</text>
</g>
<!-- flask_file_share_app -->
<g id="node2" class="node">
<title>flask_file_share_app</title><style>.edge>path:hover{stroke-width:8}</style>
<ellipse fill="#3db83d" stroke="black" cx="1172.93" cy="-156.17" rx="67.35" ry="21.43"/>
<text text-anchor="middle" x="1172.93" y="-159.17" font-family="Helvetica,sans-Serif" font-size="10.00" fill="#000000">flask_file_share.</text>
<text text-anchor="middle" x="1172.93" y="-148.17" font-family="Helvetica,sans-Serif" font-size="10.00" fill="#000000">app</text>
</g>
<!-- flask_file_share_main -->
<g id="node5" class="node">
<title>flask_file_share_main</title><style>.edge>path:hover{stroke-width:8}</style>
<ellipse fill="#46a446" stroke="black" cx="1343.28" cy="-186.17" rx="67.35" ry="21.43"/>
<text text-anchor="middle" x="1343.28" y="-189.17" font-family="Helvetica,sans-Serif" font-size="10.00" fill="#ffffff">flask_file_share.</text>
<text text-anchor="middle" x="1343.28" y="-178.17" font-family="Helvetica,sans-Serif" font-size="10.00" fill="#ffffff">main</text>
</g>
<!-- flask_file_share_app&#45;&gt;flask_file_share_main -->
<g id="edge6" class="edge">
<title>flask_file_share_app&#45;&gt;flask_file_share_main</title><style>.edge>path:hover{stroke-width:8}</style>
<path fill="none" stroke="black" d="M1231.86,-166.49C1245.56,-168.94 1260.29,-171.56 1274.39,-174.07"/>
<polygon fill="#3db83d" stroke="black" points="1274.06,-177.57 1284.52,-175.88 1275.29,-170.68 1274.06,-177.57"/>
</g>
<!-- flask_file_share_cli -->
<g id="node3" class="node">
<title>flask_file_share_cli</title><style>.edge>path:hover{stroke-width:8}</style>
<ellipse fill="#3db83d" stroke="black" cx="1172.93" cy="-266.17" rx="67.35" ry="21.43"/>
<text text-anchor="middle" x="1172.93" y="-269.17" font-family="Helvetica,sans-Serif" font-size="10.00" fill="#000000">flask_file_share.</text>
<text text-anchor="middle" x="1172.93" y="-258.17" font-family="Helvetica,sans-Serif" font-size="10.00" fill="#000000">cli</text>
</g>
<!-- flask_file_share_cli&#45;&gt;flask_file_share_main -->
<g id="edge7" class="edge">
<title>flask_file_share_cli&#45;&gt;flask_file_share_main</title><style>.edge>path:hover{stroke-width:8}</style>
<path fill="none" stroke="black" d="M1210.87,-248.61C1235.89,-236.72 1269.15,-220.92 1295.94,-208.19"/>
<polygon fill="#3db83d" stroke="black" points="1297.6,-211.28 1305.13,-203.82 1294.59,-204.95 1297.6,-211.28"/>
</g>
<!-- flask_file_share_client -->
<g id="node4" class="node">
<title>flask_file_share_client</title><style>.edge>path:hover{stroke-width:8}</style>
<ellipse fill="#33cc33" stroke="black" cx="1002.58" cy="-348.17" rx="67.35" ry="21.43"/>
<text text-anchor="middle" x="1002.58" y="-351.17" font-family="Helvetica,sans-Serif" font-size="10.00" fill="#000000">flask_file_share.</text>
<text text-anchor="middle" x="1002.58" y="-340.17" font-family="Helvetica,sans-Serif" font-size="10.00" fill="#000000">client</text>
</g>
<!-- flask_file_share_client&#45;&gt;flask_file_share -->
<g id="edge8" class="edge">
<title>flask_file_share_client&#45;&gt;flask_file_share</title><style>.edge>path:hover{stroke-width:8}</style>
<path fill="none" stroke="black" d="M1070.11,-348.17C1082.68,-348.17 1095.79,-348.17 1108.27,-348.17"/>
<polygon fill="#33cc33" stroke="black" points="1108.57,-351.67 1118.57,-348.17 1108.57,-344.67 1108.57,-351.67"/>
</g>
<!-- flask_file_share_client&#45;&gt;flask_file_share_cli -->
<g id="edge9" class="edge">
<title>flask_file_share_client&#45;&gt;flask_file_share_cli</title><style>.edge>path:hover{stroke-width:8}</style>
<path fill="none" stroke="black" d="M1040.11,-330.38C1065.37,-318.07 1099.16,-301.61 1126.21,-288.44"/>
<polygon fill="#33cc33" stroke="black" points="1128.01,-291.45 1135.47,-283.93 1124.95,-285.16 1128.01,-291.45"/>
</g>
<!-- flask_file_share_settings -->
<g id="node6" class="node">
<title>flask_file_share_settings</title><style>.edge>path:hover{stroke-width:8}</style>
<ellipse fill="#26d926" stroke="black" cx="454.53" cy="-213.17" rx="67.35" ry="21.43"/>
<text text-anchor="middle" x="454.53" y="-216.17" font-family="Helvetica,sans-Serif" font-size="10.00" fill="#000000">flask_file_share.</text>
<text text-anchor="middle" x="454.53" y="-205.17" font-family="Helvetica,sans-Serif" font-size="10.00" fill="#000000">settings</text>
</g>
<!-- flask_file_share_web_auth -->
<g id="node12" class="node">
<title>flask_file_share_web_auth</title><style>.edge>path:hover{stroke-width:8}</style>
<ellipse fill="#339933" stroke="black" cx="661.88" cy="-213.17" rx="67.35" ry="28.98"/>
<text text-anchor="middle" x="661.88" y="-221.67" font-family="Helvetica,sans-Serif" font-size="10.00" fill="#ffffff">flask_file_share.</text>
<text text-anchor="middle" x="661.88" y="-210.67" font-family="Helvetica,sans-Serif" font-size="10.00" fill="#ffffff">web.</text>
<text text-anchor="middle" x="661.88" y="-199.67" font-family="Helvetica,sans-Serif" font-size="10.00" fill="#ffffff">auth</text>
</g>
<!-- flask_file_share_settings&#45;&gt;flask_file_share_web_auth -->
<g id="edge10" class="edge">
<title>flask_file_share_settings&#45;&gt;flask_file_share_web_auth</title><style>.edge>path:hover{stroke-width:8}</style>
<path fill="none" stroke="black" d="M558.7,-213.17C567.05,-213.17 575.79,-213.17 584.48,-213.17"/>
<polygon fill="#26d926" stroke="black" points="584.65,-216.67 594.65,-213.17 584.65,-209.67 584.65,-216.67"/>
</g>
<!-- flask_file_share_web_config -->
<g id="node13" class="node">
<title>flask_file_share_web_config</title><style>.edge>path:hover{stroke-width:8}</style>
<ellipse fill="#3ab03a" stroke="black" cx="661.88" cy="-137.17" rx="67.35" ry="28.98"/>
<text text-anchor="middle" x="661.88" y="-145.67" font-family="Helvetica,sans-Serif" font-size="10.00" fill="#ffffff">flask_file_share.</text>
<text text-anchor="middle" x="661.88" y="-134.67" font-family="Helvetica,sans-Serif" font-size="10.00" fill="#ffffff">web.</text>
<text text-anchor="middle" x="661.88" y="-123.67" font-family="Helvetica,sans-Serif" font-size="10.00" fill="#ffffff">config</text>
</g>
<!-- flask_file_share_settings&#45;&gt;flask_file_share_web_config -->
<g id="edge11" class="edge">
<title>flask_file_share_settings&#45;&gt;flask_file_share_web_config</title><style>.edge>path:hover{stroke-width:8}</style>
<path fill="none" stroke="black" d="M521.76,-213.17C533.72,-213.17 546.08,-213.17 557.7,-213.17"/>
<path fill="none" stroke="black" d="M558.7,-213.17C581.97,-213.17 576.42,-189.56 594.7,-175.17 599.3,-171.55 604.29,-168.04 609.39,-164.72"/>
<polygon fill="#26d926" stroke="black" points="611.4,-167.59 618.03,-159.33 607.69,-161.66 611.4,-167.59"/>
</g>
<!-- flask_file_share_web_utils -->
<g id="node15" class="node">
<title>flask_file_share_web_utils</title><style>.edge>path:hover{stroke-width:8}</style>
<ellipse fill="#35a135" stroke="black" cx="661.88" cy="-289.17" rx="67.35" ry="28.98"/>
<text text-anchor="middle" x="661.88" y="-297.67" font-family="Helvetica,sans-Serif" font-size="10.00" fill="#ffffff">flask_file_share.</text>
<text text-anchor="middle" x="661.88" y="-286.67" font-family="Helvetica,sans-Serif" font-size="10.00" fill="#ffffff">web.</text>
<text text-anchor="middle" x="661.88" y="-275.67" font-family="Helvetica,sans-Serif" font-size="10.00" fill="#ffffff">utils</text>
</g>
<!-- flask_file_share_settings&#45;&gt;flask_file_share_web_utils -->
<g id="edge12" class="edge">
<title>flask_file_share_settings&#45;&gt;flask_file_share_web_utils</title><style>.edge>path:hover{stroke-width:8}</style>
<path fill="none" stroke="black" d="M558.7,-213.17C581.97,-213.17 576.42,-236.78 594.7,-251.17 599.3,-254.79 604.29,-258.3 609.39,-261.61"/>
<polygon fill="#26d926" stroke="black" points="607.69,-264.68 618.03,-267.01 611.4,-258.75 607.69,-264.68"/>
</g>
<!-- flask_file_share_utils -->
<g id="node7" class="node">
<title>flask_file_share_utils</title><style>.edge>path:hover{stroke-width:8}</style>
<ellipse fill="#3ab03a" stroke="black" cx="454.53" cy="-415.17" rx="67.35" ry="21.43"/>
<text text-anchor="middle" x="454.53" y="-418.17" font-family="Helvetica,sans-Serif" font-size="10.00" fill="#ffffff">flask_file_share.</text>
<text text-anchor="middle" x="454.53" y="-407.17" font-family="Helvetica,sans-Serif" font-size="10.00" fill="#ffffff">utils</text>
</g>
<!-- flask_file_share_utils&#45;&gt;flask_file_share_web_utils -->
<g id="edge13" class="edge">
<title>flask_file_share_utils&#45;&gt;flask_file_share_web_utils</title><style>.edge>path:hover{stroke-width:8}</style>
<path fill="none" stroke="black" d="M484.89,-396.09C512.9,-378.01 556.39,-350.27 594.7,-327.17 600.14,-323.89 605.85,-320.51 611.56,-317.18"/>
<polygon fill="#3ab03a" stroke="black" points="613.58,-320.05 620.47,-312.01 610.07,-314 613.58,-320.05"/>
</g>
<!-- flask_file_share_utils_mimetype -->
<g id="node8" class="node">
<title>flask_file_share_utils_mimetype</title><style>.edge>path:hover{stroke-width:8}</style>
<ellipse fill="#47c247" stroke="black" cx="284.18" cy="-491.17" rx="67.35" ry="28.98"/>
<text text-anchor="middle" x="284.18" y="-499.67" font-family="Helvetica,sans-Serif" font-size="10.00" fill="#000000">flask_file_share.</text>
<text text-anchor="middle" x="284.18" y="-488.67" font-family="Helvetica,sans-Serif" font-size="10.00" fill="#000000">utils.</text>
<text text-anchor="middle" x="284.18" y="-477.67" font-family="Helvetica,sans-Serif" font-size="10.00" fill="#000000">mimetype</text>
</g>
<!-- flask_file_share_utils_mimetype&#45;&gt;flask_file_share_utils -->
<g id="edge14" class="edge">
<title>flask_file_share_utils_mimetype&#45;&gt;flask_file_share_utils</title><style>.edge>path:hover{stroke-width:8}</style>
<path fill="none" stroke="black" d="M331.18,-470.4C354.37,-459.93 382.46,-447.25 405.87,-436.68"/>
<polygon fill="#47c247" stroke="black" points="407.58,-439.75 415.26,-432.44 404.7,-433.37 407.58,-439.75"/>
</g>
<!-- flask_file_share_utils_slugify -->
<g id="node9" class="node">
<title>flask_file_share_utils_slugify</title><style>.edge>path:hover{stroke-width:8}</style>
<ellipse fill="#3db83d" stroke="black" cx="284.18" cy="-415.17" rx="67.35" ry="28.98"/>
<text text-anchor="middle" x="284.18" y="-423.67" font-family="Helvetica,sans-Serif" font-size="10.00" fill="#000000">flask_file_share.</text>
<text text-anchor="middle" x="284.18" y="-412.67" font-family="Helvetica,sans-Serif" font-size="10.00" fill="#000000">utils.</text>
<text text-anchor="middle" x="284.18" y="-401.67" font-family="Helvetica,sans-Serif" font-size="10.00" fill="#000000">slugify</text>
</g>
<!-- flask_file_share_utils_slugify&#45;&gt;flask_file_share_utils -->
<g id="edge15" class="edge">
<title>flask_file_share_utils_slugify&#45;&gt;flask_file_share_utils</title><style>.edge>path:hover{stroke-width:8}</style>
<path fill="none" stroke="black" d="M351.71,-415.17C360.01,-415.17 368.55,-415.17 376.98,-415.17"/>
<polygon fill="#3db83d" stroke="black" points="377.2,-418.67 387.2,-415.17 377.2,-411.67 377.2,-418.67"/>
</g>
<!-- flask_file_share_utils_zip -->
<g id="node10" class="node">
<title>flask_file_share_utils_zip</title><style>.edge>path:hover{stroke-width:8}</style>
<ellipse fill="#47c247" stroke="black" cx="284.18" cy="-339.17" rx="67.35" ry="28.98"/>
<text text-anchor="middle" x="284.18" y="-347.67" font-family="Helvetica,sans-Serif" font-size="10.00" fill="#000000">flask_file_share.</text>
<text text-anchor="middle" x="284.18" y="-336.67" font-family="Helvetica,sans-Serif" font-size="10.00" fill="#000000">utils.</text>
<text text-anchor="middle" x="284.18" y="-325.67" font-family="Helvetica,sans-Serif" font-size="10.00" fill="#000000">zip</text>
</g>
<!-- flask_file_share_utils_zip&#45;&gt;flask_file_share_utils -->
<g id="edge16" class="edge">
<title>flask_file_share_utils_zip&#45;&gt;flask_file_share_utils</title><style>.edge>path:hover{stroke-width:8}</style>
<path fill="none" stroke="black" d="M331.18,-359.94C354.37,-370.41 382.46,-383.09 405.87,-393.66"/>
<polygon fill="#47c247" stroke="black" points="404.7,-396.97 415.26,-397.89 407.58,-390.59 404.7,-396.97"/>
</g>
<!-- flask_file_share_web -->
<g id="node11" class="node">
<title>flask_file_share_web</title><style>.edge>path:hover{stroke-width:8}</style>
<ellipse fill="#40c040" stroke="black" cx="1002.58" cy="-149.17" rx="67.35" ry="21.43"/>
<text text-anchor="middle" x="1002.58" y="-152.17" font-family="Helvetica,sans-Serif" font-size="10.00" fill="#000000">flask_file_share.</text>
<text text-anchor="middle" x="1002.58" y="-141.17" font-family="Helvetica,sans-Serif" font-size="10.00" fill="#000000">web</text>
</g>
<!-- flask_file_share_web&#45;&gt;flask_file_share_app -->
<g id="edge17" class="edge">
<title>flask_file_share_web&#45;&gt;flask_file_share_app</title><style>.edge>path:hover{stroke-width:8}</style>
<path fill="none" stroke="black" d="M1069.63,-151.92C1078.24,-152.27 1087.11,-152.64 1095.86,-153.01"/>
<polygon fill="#40c040" stroke="black" points="1095.93,-156.51 1106.06,-153.43 1096.22,-149.52 1095.93,-156.51"/>
</g>
<!-- flask_file_share_web_routes -->
<g id="node14" class="node">
<title>flask_file_share_web_routes</title><style>.edge>path:hover{stroke-width:8}</style>
<ellipse fill="#35a135" stroke="black" cx="832.23" cy="-149.17" rx="67.35" ry="28.98"/>
<text text-anchor="middle" x="832.23" y="-157.67" font-family="Helvetica,sans-Serif" font-size="10.00" fill="#ffffff">flask_file_share.</text>
<text text-anchor="middle" x="832.23" y="-146.67" font-family="Helvetica,sans-Serif" font-size="10.00" fill="#ffffff">web.</text>
<text text-anchor="middle" x="832.23" y="-135.67" font-family="Helvetica,sans-Serif" font-size="10.00" fill="#ffffff">routes</text>
</g>
<!-- flask_file_share_web_auth&#45;&gt;flask_file_share_web_routes -->
<g id="edge18" class="edge">
<title>flask_file_share_web_auth&#45;&gt;flask_file_share_web_routes</title><style>.edge>path:hover{stroke-width:8}</style>
<path fill="none" stroke="black" d="M712.93,-194.14C731.42,-187.11 752.55,-179.08 771.8,-171.76"/>
<polygon fill="#339933" stroke="black" points="773.26,-174.95 781.36,-168.13 770.77,-168.41 773.26,-174.95"/>
</g>
<!-- flask_file_share_web_config&#45;&gt;flask_file_share_web_routes -->
<g id="edge19" class="edge">
<title>flask_file_share_web_config&#45;&gt;flask_file_share_web_routes</title><style>.edge>path:hover{stroke-width:8}</style>
<path fill="none" stroke="black" d="M728.45,-141.84C737.37,-142.48 746.58,-143.14 755.66,-143.78"/>
<polygon fill="#3ab03a" stroke="black" points="755.61,-147.29 765.83,-144.51 756.11,-140.31 755.61,-147.29"/>
</g>
<!-- flask_file_share_web_routes&#45;&gt;flask_file_share_web -->
<g id="edge20" class="edge">
<title>flask_file_share_web_routes&#45;&gt;flask_file_share_web</title><style>.edge>path:hover{stroke-width:8}</style>
<path fill="none" stroke="black" d="M899.76,-149.17C908.06,-149.17 916.6,-149.17 925.03,-149.17"/>
<polygon fill="#35a135" stroke="black" points="925.25,-152.67 935.25,-149.17 925.25,-145.67 925.25,-152.67"/>
</g>
<!-- flask_file_share_web_utils&#45;&gt;flask_file_share_web_routes -->
<g id="edge21" class="edge">
<title>flask_file_share_web_utils&#45;&gt;flask_file_share_web_routes</title><style>.edge>path:hover{stroke-width:8}</style>
<path fill="none" stroke="black" d="M705.6,-266.85C713.64,-262.04 721.79,-256.72 729.05,-251.17 755.29,-231.1 781.6,-204.66 800.95,-183.72"/>
<polygon fill="#35a135" stroke="black" points="803.59,-186.02 807.75,-176.28 798.42,-181.3 803.59,-186.02"/>
</g>
<!-- flask_file_share_web_views -->
<g id="node16" class="node">
<title>flask_file_share_web_views</title><style>.edge>path:hover{stroke-width:8}</style>
<ellipse fill="#40c040" stroke="black" cx="661.88" cy="-61.17" rx="67.35" ry="28.98"/>
<text text-anchor="middle" x="661.88" y="-69.67" font-family="Helvetica,sans-Serif" font-size="10.00" fill="#000000">flask_file_share.</text>
<text text-anchor="middle" x="661.88" y="-58.67" font-family="Helvetica,sans-Serif" font-size="10.00" fill="#000000">web.</text>
<text text-anchor="middle" x="661.88" y="-47.67" font-family="Helvetica,sans-Serif" font-size="10.00" fill="#000000">views</text>
</g>
<!-- flask_file_share_web_views&#45;&gt;flask_file_share_web_routes -->
<g id="edge22" class="edge">
<title>flask_file_share_web_views&#45;&gt;flask_file_share_web_routes</title><style>.edge>path:hover{stroke-width:8}</style>
<path fill="none" stroke="black" d="M705.36,-83.38C727.99,-95.2 756,-109.85 779.84,-122.31"/>
<polygon fill="#40c040" stroke="black" points="778.27,-125.44 788.76,-126.97 781.52,-119.24 778.27,-125.44"/>
</g>
<!-- dotenv -->
<g id="node17" class="node">
<title>dotenv</title><style>.edge>path:hover{stroke-width:8}</style>
<polygon fill="#b65353" stroke="black" points="181,-231.17 178,-235.17 157,-235.17 154,-231.17 127,-231.17 127,-195.17 181,-195.17 181,-231.17"/>
<text text-anchor="middle" x="154" y="-210.67" font-family="Helvetica,sans-Serif" font-size="10.00" fill="#ffffff">dotenv</text>
</g>
<!-- dotenv&#45;&gt;flask_file_share_settings -->
<g id="edge1" class="edge">
<title>dotenv&#45;&gt;flask_file_share_settings</title><style>.edge>path:hover{stroke-width:8}</style>
<path fill="none" stroke="black" d="M181.23,-213.17C224.58,-213.17 312.77,-213.17 377.08,-213.17"/>
<polygon fill="#b65353" stroke="black" points="377.18,-216.67 387.18,-213.17 377.18,-209.67 377.18,-216.67"/>
</g>
<!-- flask -->
<g id="node18" class="node">
<title>flask</title><style>.edge>path:hover{stroke-width:8}</style>
<polygon fill="#e6e619" stroke="black" points="311.18,-155.17 308.18,-159.17 287.18,-159.17 284.18,-155.17 257.18,-155.17 257.18,-119.17 311.18,-119.17 311.18,-155.17"/>
<text text-anchor="middle" x="284.18" y="-134.67" font-family="Helvetica,sans-Serif" font-size="10.00" fill="#000000">flask</text>
</g>
<!-- flask&#45;&gt;flask_file_share_web_auth -->
<g id="edge2" class="edge">
<title>flask&#45;&gt;flask_file_share_web_auth</title><style>.edge>path:hover{stroke-width:8}</style>
<path fill="none" stroke="black" d="M558.7,-137.17C581.69,-133.57 576.42,-160.78 594.7,-175.17 599.3,-178.79 604.29,-182.3 609.39,-185.61"/>
<polygon fill="#e6e619" stroke="black" points="607.69,-188.68 618.03,-191.01 611.4,-182.75 607.69,-188.68"/>
</g>
<!-- flask&#45;&gt;flask_file_share_web_config -->
<g id="edge3" class="edge">
<title>flask&#45;&gt;flask_file_share_web_config</title><style>.edge>path:hover{stroke-width:8}</style>
<path fill="none" stroke="black" d="M558.7,-137.17C567.17,-135.85 576.08,-135.02 584.96,-134.55"/>
<polygon fill="#e6e619" stroke="black" points="585.1,-138.05 594.96,-134.17 584.83,-131.06 585.1,-138.05"/>
</g>
<!-- flask&#45;&gt;flask_file_share_web_routes -->
<g id="edge4" class="edge">
<title>flask&#45;&gt;flask_file_share_web_routes</title><style>.edge>path:hover{stroke-width:8}</style>
<path fill="none" stroke="black" d="M311.31,-139.84C360.09,-144.23 468.18,-151.17 557.7,-137.17"/>
<path fill="none" stroke="black" d="M558.7,-137.17C610.89,-127.19 551.84,-54.58 594.7,-23.17 642.86,12.13 675.15,2.52 729.05,-23.17 767.18,-41.34 795.71,-81.47 812.79,-111.59"/>
<polygon fill="#e6e619" stroke="black" points="809.84,-113.5 817.72,-120.58 815.98,-110.13 809.84,-113.5"/>
</g>
<!-- flask&#45;&gt;flask_file_share_web_views -->
<g id="edge5" class="edge">
<title>flask&#45;&gt;flask_file_share_web_views</title><style>.edge>path:hover{stroke-width:8}</style>
<path fill="none" stroke="black" d="M558.7,-137.17C581.69,-133.57 576.42,-113.56 594.7,-99.17 599.3,-95.55 604.29,-92.04 609.39,-88.72"/>
<polygon fill="#e6e619" stroke="black" points="611.4,-91.59 618.03,-83.33 607.69,-85.66 611.4,-91.59"/>
</g>
<!-- requests -->
<g id="node19" class="node">
<title>requests</title><style>.edge>path:hover{stroke-width:8}</style>
<polygon fill="#40bfc0" stroke="black" points="691.38,-372.17 688.38,-376.17 667.38,-376.17 664.38,-372.17 632.38,-372.17 632.38,-336.17 691.38,-336.17 691.38,-372.17"/>
<text text-anchor="middle" x="661.88" y="-351.67" font-family="Helvetica,sans-Serif" font-size="10.00" fill="#000000">requests</text>
</g>
<!-- requests&#45;&gt;flask_file_share_client -->
<g id="edge23" class="edge">
<title>requests&#45;&gt;flask_file_share_client</title><style>.edge>path:hover{stroke-width:8}</style>
<path fill="none" stroke="black" d="M691.46,-353.66C742.56,-352.76 851.17,-350.83 925.28,-349.52"/>
<polygon fill="#40bfc0" stroke="black" points="925.57,-353.02 935.5,-349.34 925.44,-346.02 925.57,-353.02"/>
</g>
<!-- slugify -->
<g id="node20" class="node">
<title>slugify</title><style>.edge>path:hover{stroke-width:8}</style>
<polygon fill="#4c4cb3" stroke="black" points="54,-433.17 51,-437.17 30,-437.17 27,-433.17 0,-433.17 0,-397.17 54,-397.17 54,-433.17"/>
<text text-anchor="middle" x="27" y="-412.67" font-family="Helvetica,sans-Serif" font-size="10.00" fill="#ffffff">slugify</text>
</g>
<!-- slugify&#45;&gt;flask_file_share_utils_slugify -->
<g id="edge24" class="edge">
<title>slugify&#45;&gt;flask_file_share_utils_slugify</title><style>.edge>path:hover{stroke-width:8}</style>
<path fill="none" stroke="black" d="M54.35,-415.17C89.98,-415.17 155.02,-415.17 206.68,-415.17"/>
<polygon fill="#4c4cb3" stroke="black" points="206.82,-418.67 216.82,-415.17 206.82,-411.67 206.82,-418.67"/>
</g>
<!-- werkzeug -->
<g id="node21" class="node">
<title>werkzeug</title><style>.edge>path:hover{stroke-width:8}</style>
<polygon fill="#cc33cc" stroke="black" points="316.18,-292.17 313.18,-296.17 292.18,-296.17 289.18,-292.17 252.18,-292.17 252.18,-256.17 316.18,-256.17 316.18,-292.17"/>
<text text-anchor="middle" x="284.18" y="-271.67" font-family="Helvetica,sans-Serif" font-size="10.00" fill="#ffffff">werkzeug</text>
</g>
<!-- werkzeug&#45;&gt;flask_file_share_web_auth -->
<g id="edge25" class="edge">
<title>werkzeug&#45;&gt;flask_file_share_web_auth</title><style>.edge>path:hover{stroke-width:8}</style>
<path fill="none" stroke="black" d="M316.52,-280.53C367.5,-289.83 471.39,-304.49 557.7,-289.17"/>
<path fill="none" stroke="black" d="M558.7,-289.17C581.5,-284.55 576.42,-265.56 594.7,-251.17 599.3,-247.55 604.29,-244.04 609.39,-240.72"/>
<polygon fill="#cc33cc" stroke="black" points="611.4,-243.59 618.03,-235.33 607.69,-237.66 611.4,-243.59"/>
</g>
<!-- werkzeug&#45;&gt;flask_file_share_web_utils -->
<g id="edge26" class="edge">
<title>werkzeug&#45;&gt;flask_file_share_web_utils</title><style>.edge>path:hover{stroke-width:8}</style>
<path fill="none" stroke="black" d="M558.7,-289.17C567.05,-287.69 575.84,-286.76 584.62,-286.23"/>
<polygon fill="#cc33cc" stroke="black" points="585.06,-289.71 594.9,-285.78 584.75,-282.72 585.06,-289.71"/>
</g>
</g>
</svg>
