<?xml version="1.0" encoding="UTF-8" standalone="no"?>
<!DOCTYPE svg PUBLIC "-//W3C//DTD SVG 1.1//EN"
 "http://www.w3.org/Graphics/SVG/1.1/DTD/svg11.dtd">
<!-- Generated by graphviz version 2.43.0 (0)
 -->
<!-- Title: G Pages: 1 -->
<svg width="843pt" height="262pt"
 viewBox="0.00 0.00 843.40 262.21" xmlns="http://www.w3.org/2000/svg" xmlns:xlink="http://www.w3.org/1999/xlink">
<g id="graph0" class="graph" transform="scale(1 1) rotate(0) translate(4 258.21)">
<title>G</title><style>.edge>path:hover{stroke-width:8}</style>
<polygon fill="white" stroke="transparent" points="-4,4 -4,-258.21 839.4,-258.21 839.4,4 -4,4"/>
<!-- flask_file_share -->
<g id="node1" class="node">
<title>flask_file_share</title><style>.edge>path:hover{stroke-width:8}</style>
<ellipse fill="#19e619" stroke="black" cx="597.88" cy="-81" rx="54.31" ry="18"/>
<text text-anchor="middle" x="597.88" y="-78.5" font-family="Helvetica,sans-Serif" font-size="10.00" fill="#000000">flask_file_share</text>
</g>
<!-- flask_file_share_app -->
<g id="node2" class="node">
<title>flask_file_share_app</title><style>.edge>path:hover{stroke-width:8}</style>
<ellipse fill="#3db83d" stroke="black" cx="597.88" cy="-158" rx="67.35" ry="21.43"/>
<text text-anchor="middle" x="597.88" y="-161" font-family="Helvetica,sans-Serif" font-size="10.00" fill="#000000">flask_file_share.</text>
<text text-anchor="middle" x="597.88" y="-150" font-family="Helvetica,sans-Serif" font-size="10.00" fill="#000000">app</text>
</g>
<!-- flask_file_share_main -->
<g id="node5" class="node">
<title>flask_file_share_main</title><style>.edge>path:hover{stroke-width:8}</style>
<ellipse fill="#46a446" stroke="black" cx="768.23" cy="-81" rx="67.35" ry="21.43"/>
<text text-anchor="middle" x="768.23" y="-84" font-family="Helvetica,sans-Serif" font-size="10.00" fill="#ffffff">flask_file_share.</text>
<text text-anchor="middle" x="768.23" y="-73" font-family="Helvetica,sans-Serif" font-size="10.00" fill="#ffffff">main</text>
</g>
<!-- flask_file_share_app&#45;&gt;flask_file_share_main -->
<g id="edge3" class="edge">
<title>flask_file_share_app&#45;&gt;flask_file_share_main</title><style>.edge>path:hover{stroke-width:8}</style>
<path fill="none" stroke="black" d="M637.08,-140.53C661.62,-129.3 693.67,-114.64 719.83,-102.68"/>
<polygon fill="#3db83d" stroke="black" points="721.54,-105.75 729.18,-98.4 718.63,-99.38 721.54,-105.75"/>
</g>
<!-- flask_file_share_cli -->
<g id="node3" class="node">
<title>flask_file_share_cli</title><style>.edge>path:hover{stroke-width:8}</style>
<ellipse fill="#3db83d" stroke="black" cx="597.88" cy="-24" rx="67.35" ry="21.43"/>
<text text-anchor="middle" x="597.88" y="-27" font-family="Helvetica,sans-Serif" font-size="10.00" fill="#000000">flask_file_share.</text>
<text text-anchor="middle" x="597.88" y="-16" font-family="Helvetica,sans-Serif" font-size="10.00" fill="#000000">cli</text>
</g>
<!-- flask_file_share_cli&#45;&gt;flask_file_share_main -->
<g id="edge4" class="edge">
<title>flask_file_share_cli&#45;&gt;flask_file_share_main</title><style>.edge>path:hover{stroke-width:8}</style>
<path fill="none" stroke="black" d="M644.43,-39.43C665.3,-46.49 690.21,-54.92 712.12,-62.34"/>
<polygon fill="#3db83d" stroke="black" points="711.04,-65.67 721.63,-65.56 713.28,-59.04 711.04,-65.67"/>
</g>
<!-- flask_file_share_client -->
<g id="node4" class="node">
<title>flask_file_share_client</title><style>.edge>path:hover{stroke-width:8}</style>
<ellipse fill="#33cc33" stroke="black" cx="427.53" cy="-24" rx="67.35" ry="21.43"/>
<text text-anchor="middle" x="427.53" y="-27" font-family="Helvetica,sans-Serif" font-size="10.00" fill="#000000">flask_file_share.</text>
<text text-anchor="middle" x="427.53" y="-16" font-family="Helvetica,sans-Serif" font-size="10.00" fill="#000000">client</text>
</g>
<!-- flask_file_share_client&#45;&gt;flask_file_share -->
<g id="edge5" class="edge">
<title>flask_file_share_client&#45;&gt;flask_file_share</title><style>.edge>path:hover{stroke-width:8}</style>
<path fill="none" stroke="black" d="M474.08,-39.43C497.53,-47.36 526.09,-57.03 549.76,-65.05"/>
<polygon fill="#33cc33" stroke="black" points="548.65,-68.37 559.24,-68.26 550.89,-61.74 548.65,-68.37"/>
</g>
<!-- flask_file_share_client&#45;&gt;flask_file_share_cli -->
<g id="edge6" class="edge">
<title>flask_file_share_client&#45;&gt;flask_file_share_cli</title><style>.edge>path:hover{stroke-width:8}</style>
<path fill="none" stroke="black" d="M495.06,-24C503.36,-24 511.9,-24 520.33,-24"/>
<polygon fill="#33cc33" stroke="black" points="520.55,-27.5 530.55,-24 520.55,-20.5 520.55,-27.5"/>
</g>
<!-- flask_file_share_settings -->
<g id="node6" class="node">
<title>flask_file_share_settings</title><style>.edge>path:hover{stroke-width:8}</style>
<ellipse fill="#40c040" stroke="black" cx="257.18" cy="-233" rx="67.35" ry="21.43"/>
<text text-anchor="middle" x="257.18" y="-236" font-family="Helvetica,sans-Serif" font-size="10.00" fill="#000000">flask_file_share.</text>
<text text-anchor="middle" x="257.18" y="-225" font-family="Helvetica,sans-Serif" font-size="10.00" fill="#000000">settings</text>
</g>
<!-- flask_file_share_web -->
<g id="node8" class="node">
<title>flask_file_share_web</title><style>.edge>path:hover{stroke-width:8}</style>
<ellipse fill="#249324" stroke="black" cx="427.53" cy="-163" rx="67.35" ry="21.43"/>
<text text-anchor="middle" x="427.53" y="-166" font-family="Helvetica,sans-Serif" font-size="10.00" fill="#ffffff">flask_file_share.</text>
<text text-anchor="middle" x="427.53" y="-155" font-family="Helvetica,sans-Serif" font-size="10.00" fill="#ffffff">web</text>
</g>
<!-- flask_file_share_settings&#45;&gt;flask_file_share_web -->
<g id="edge7" class="edge">
<title>flask_file_share_settings&#45;&gt;flask_file_share_web</title><style>.edge>path:hover{stroke-width:8}</style>
<path fill="none" stroke="black" d="M298.5,-216.23C322.05,-206.44 351.95,-194.01 376.93,-183.62"/>
<polygon fill="#40c040" stroke="black" points="378.35,-186.82 386.24,-179.75 375.66,-180.36 378.35,-186.82"/>
</g>
<!-- flask_file_share_utils -->
<g id="node7" class="node">
<title>flask_file_share_utils</title><style>.edge>path:hover{stroke-width:8}</style>
<ellipse fill="#2fbc2f" stroke="black" cx="257.18" cy="-173" rx="67.35" ry="21.43"/>
<text text-anchor="middle" x="257.18" y="-176" font-family="Helvetica,sans-Serif" font-size="10.00" fill="#000000">flask_file_share.</text>
<text text-anchor="middle" x="257.18" y="-165" font-family="Helvetica,sans-Serif" font-size="10.00" fill="#000000">utils</text>
</g>
<!-- flask_file_share_utils&#45;&gt;flask_file_share_web -->
<g id="edge8" class="edge">
<title>flask_file_share_utils&#45;&gt;flask_file_share_web</title><style>.edge>path:hover{stroke-width:8}</style>
<path fill="none" stroke="black" d="M323.26,-169.13C332.44,-168.59 341.93,-168.03 351.27,-167.47"/>
<polygon fill="#2fbc2f" stroke="black" points="351.56,-170.96 361.33,-166.87 351.14,-163.97 351.56,-170.96"/>
</g>
<!-- flask_file_share_web&#45;&gt;flask_file_share_app -->
<g id="edge9" class="edge">
<title>flask_file_share_web&#45;&gt;flask_file_share_app</title><style>.edge>path:hover{stroke-width:8}</style>
<path fill="none" stroke="black" d="M494.58,-161.04C503.12,-160.78 511.92,-160.52 520.61,-160.27"/>
<polygon fill="#249324" stroke="black" points="520.84,-163.76 530.74,-159.96 520.64,-156.76 520.84,-163.76"/>
</g>
<!-- dotenv -->
<g id="node9" class="node">
<title>dotenv</title><style>.edge>path:hover{stroke-width:8}</style>
<polygon fill="#b65353" stroke="black" points="54,-251 51,-255 30,-255 27,-251 0,-251 0,-215 54,-215 54,-251"/>
<text text-anchor="middle" x="27" y="-230.5" font-family="Helvetica,sans-Serif" font-size="10.00" fill="#ffffff">dotenv</text>
</g>
<!-- dotenv&#45;&gt;flask_file_share_settings -->
<g id="edge1" class="edge">
<title>dotenv&#45;&gt;flask_file_share_settings</title><style>.edge>path:hover{stroke-width:8}</style>
<path fill="none" stroke="black" d="M54.17,-233C84.52,-233 135.91,-233 179.27,-233"/>
<polygon fill="#b65353" stroke="black" points="179.53,-236.5 189.53,-233 179.53,-229.5 179.53,-236.5"/>
</g>
<!-- flask -->
<g id="node10" class="node">
<title>flask</title><style>.edge>path:hover{stroke-width:8}</style>
<polygon fill="#bfc040" stroke="black" points="149,-144 146,-148 125,-148 122,-144 95,-144 95,-108 149,-108 149,-144"/>
<text text-anchor="middle" x="122" y="-123.5" font-family="Helvetica,sans-Serif" font-size="10.00" fill="#000000">flask</text>
</g>
<!-- flask&#45;&gt;flask_file_share_web -->
<g id="edge2" class="edge">
<title>flask&#45;&gt;flask_file_share_web</title><style>.edge>path:hover{stroke-width:8}</style>
<path fill="none" stroke="black" d="M149.09,-122.29C176.17,-119.21 219.61,-116.44 256.18,-124"/>
</g>
<!-- requests -->
<g id="node11" class="node">
<title>requests</title><style>.edge>path:hover{stroke-width:8}</style>
<polygon fill="#40bfc0" stroke="black" points="151.5,-36 148.5,-40 127.5,-40 124.5,-36 92.5,-36 92.5,0 151.5,0 151.5,-36"/>
<text text-anchor="middle" x="122" y="-15.5" font-family="Helvetica,sans-Serif" font-size="10.00" fill="#000000">requests</text>
</g>
<!-- requests&#45;&gt;flask_file_share_client -->
<g id="edge10" class="edge">
<title>requests&#45;&gt;flask_file_share_client</title><style>.edge>path:hover{stroke-width:8}</style>
<path fill="none" stroke="black" d="M151.55,-18.56C196.59,-19.45 285.63,-21.21 350.21,-22.49"/>
<polygon fill="#40bfc0" stroke="black" points="350.29,-25.99 360.36,-22.69 350.43,-18.99 350.29,-25.99"/>
</g>
<!-- slugify -->
<g id="node12" class="node">
<title>slugify</title><style>.edge>path:hover{stroke-width:8}</style>
<polygon fill="#4c4cb3" stroke="black" points="54,-191 51,-195 30,-195 27,-191 0,-191 0,-155 54,-155 54,-191"/>
<text text-anchor="middle" x="27" y="-170.5" font-family="Helvetica,sans-Serif" font-size="10.00" fill="#ffffff">slugify</text>
</g>
<!-- slugify&#45;&gt;flask_file_share_utils -->
<g id="edge11" class="edge">
<title>slugify&#45;&gt;flask_file_share_utils</title><style>.edge>path:hover{stroke-width:8}</style>
<path fill="none" stroke="black" d="M54.17,-173C84.52,-173 135.91,-173 179.27,-173"/>
<polygon fill="#4c4cb3" stroke="black" points="179.53,-176.5 189.53,-173 179.53,-169.5 179.53,-176.5"/>
</g>
<!-- werkzeug -->
<g id="node13" class="node">
<title>werkzeug</title><style>.edge>path:hover{stroke-width:8}</style>
<polygon fill="#cc33cc" stroke="black" points="154,-90 151,-94 130,-94 127,-90 90,-90 90,-54 154,-54 154,-90"/>
<text text-anchor="middle" x="122" y="-69.5" font-family="Helvetica,sans-Serif" font-size="10.00" fill="#ffffff">werkzeug</text>
</g>
<!-- werkzeug&#45;&gt;flask_file_share_web -->
<g id="edge12" class="edge">
<title>werkzeug&#45;&gt;flask_file_share_web</title><style>.edge>path:hover{stroke-width:8}</style>
<path fill="none" stroke="black" d="M154.1,-87.61C180.52,-100.01 219.84,-116.48 256.18,-124"/>
<path fill="none" stroke="black" d="M258.18,-124C293.3,-131.27 332.34,-140.25 363.97,-147.77"/>
<polygon fill="#cc33cc" stroke="black" points="363.43,-151.23 373.97,-150.15 365.05,-144.43 363.43,-151.23"/>
</g>
</g>
</svg>
